<?xml version="1.0" encoding="UTF-8"?>
<svg xmlns="http://www.w3.org/2000/svg" viewBox="0 0 500 500" width="500" height="500">
<path d="M384.25 295.89C387.92 297.25 394.13 295.59 397.96 294.99C406.59 293.64 415.33 293.12 423.96 291.77C430.73 290.71 437.29 289.14 443.82 292.48C449.82 295.55 452.79 303.61 453.97 309.73C456.93 325.12 460.35 352.62 441.7 359.73C437.41 361.37 432.99 361.42 428.55 362.11C425.79 362.55 423.06 363.48 420.31 363.91C413.2 365.03 405.97 365.11 398.87 366.22C376.76 369.69 354.43 371.69 331.74 371.69C309.6 371.69 296.63 372.04 276.73 361.86C251.67 349.04 243.63 313.63 239.74 288.8C238.89 283.35 238.76 277.79 237.91 272.36C236.82 265.36 236.99 257.56 236.99 250.46C236.99 247.88 237.89 243.14 236.3 241.1C233.65 244.36 230.31 258.88 229.14 263.61C226.35 274.93 221.12 285.49 217.89 296.66C215.88 303.63 213.61 312.74 209.35 318.71C206.95 322.07 204.32 326.02 200.9 328.52C185.02 340.11 164.75 336.05 153.67 320.53C149.55 314.77 147.79 306.95 145.58 300.31C142.52 291.14 138.45 281.59 136.16 272.29C134.43 265.29 131.62 253.2 128.54 247.03C126.59 249.07 127.2 253.57 126.94 256.39C126.39 262.47 126.51 269.04 125.56 275.1C124.7 280.54 124.61 286.12 123.76 291.57C123.41 293.79 124.08 296.16 123.73 298.39C121.74 311.07 121.64 324.08 119.65 336.77C118.5 344.14 118.7 354.59 111.86 359.57C102.08 366.71 87.64 364.86 76.47 363.03C67.78 361.61 57.59 359.55 50.46 353.88C43.65 348.48 43.03 339.72 44.28 331.72C46.75 315.97 48.96 300.27 51.97 284.62C54.9 269.4 56.96 253.93 59.9 238.67C63.78 218.52 68.81 198.74 72.97 178.68C76.48 161.79 79.06 139.28 98.03 132.05C102.89 130.19 107.89 129.65 112.93 128.68C118.9 127.53 125.4 128.79 131.19 130.22C151.98 135.35 160.64 165.1 167.21 182.33C169.75 188.99 172.62 196.05 174.34 203.05C175.39 207.31 179.42 224.37 181.51 226.94C183.39 223.17 185.9 212.15 186.84 207.62C189.28 195.86 194.76 184.73 198.09 173.2C204.4 151.34 212.69 131.08 238.13 128.77C243.44 128.28 248.42 128.35 253.67 129.21C261.48 130.49 268.65 132 275.33 136.77C282.48 141.88 288.52 152.27 289.94 160.97C290.95 167.15 290.83 173.48 291.8 179.67C294.72 198.31 296.15 217.22 299.07 235.86C300.22 243.17 300.48 250.66 302.2 257.85C304.56 267.76 304.15 280.24 309.8 289.06C311.96 292.43 315.24 296.54 319.63 295.66C320.76 292.63 319.91 289.13 319.63 286.07C319.01 279.2 319.63 271.97 319.63 265.07C319.63 234.82 317.35 204.89 317.35 174.66C317.35 164.1 313.59 148.38 319.42 139.28C326.03 128.97 348.46 126.84 359.59 127.85C364.59 128.31 369.69 129.02 374.57 130.22C395.83 135.47 388.13 163.46 388.13 179.22C388.13 185.62 388.21 192.59 387.23 198.87C386.5 203.5 387.5 208.41 386.77 213.03C385.74 219.62 386.89 226.54 385.86 233.12C384.44 242.18 386.22 251.82 385.39 260.96C385.03 264.9 385.53 269.33 384.92 273.27C383.84 280.13 382.86 288.94 384.25 295.89ZM347.8 151.68C336.75 153.89 336.93 169.52 338.9 177.77C339.81 181.58 342.26 185.07 344.51 188.14C347.15 191.77 351.95 195.36 356.76 194.43C371.41 191.62 367.81 164.05 358.92 156.84C355.8 154.3 352.25 150.79 347.8 151.68ZM250.09 155.34C243.41 156.59 236.84 157.3 231.06 161.43C221.97 167.92 219.23 180.74 229.24 187.89C241.16 196.4 268.59 191.84 272.52 175.94C274.82 166.6 268.79 158.88 259.67 156.99C256.69 156.37 253.19 154.75 250.09 155.34ZM120.86 167.21C108.75 169.54 98.26 178.3 94.43 190.1C92.11 197.27 93.69 207.83 102.6 209.96C117.89 213.61 134.5 199.89 137.36 185.07C139.26 175.2 131.48 165.16 120.86 167.21ZM365.61 209.22C358.66 210.88 356.59 225.45 358.36 230.91C359.08 233.13 360.66 236.91 363.26 237.43C373.58 239.49 375.45 222.38 373.89 215.84C372.98 212.06 369.85 208.2 365.61 209.22ZM270.18 219.72C257.2 222.32 261.61 244.54 276.4 241.01C289.16 237.96 285.25 216.71 270.18 219.72ZM151.46 223.83C136.34 226.74 141.08 248.07 153.64 246.1C168.68 243.75 164.96 221.23 151.46 223.83ZM202.6 227.94C192.65 230.31 195.16 246.31 205.24 244.73C216.39 242.99 213.59 225.32 202.6 227.94ZM349.17 256.71C344.77 257.76 342.92 263.96 342.92 267.81C342.92 276.29 350.56 291.63 361.33 288.04C364.94 286.84 366.21 280.49 366.21 277.4C366.21 269.6 359.03 254.35 349.17 256.71ZM87.99 262.64C71.99 265.72 61.17 295.57 63.84 309.45C65.21 316.57 67.15 325.15 75.66 326.86C82.14 328.15 89.41 322.2 92.94 317.37C100.69 306.74 107.15 292.46 105.01 278.78C103.6 269.8 98.61 260.6 87.99 262.64ZM271.09 267.21C261.59 269.11 256.47 282.12 263.1 289.64C266.99 294.05 272.6 295.1 278.22 293.98C293.83 290.86 288.53 263.72 271.09 267.21ZM188.44 268.58C177.14 270.4 169.23 278.51 165.67 289.18C163.49 295.73 165.02 303.57 171.55 306.76C183.76 312.73 199.43 295.5 200.46 284.25C201.12 276.92 197.78 267.07 188.44 268.58ZM420.41 307.39C414.44 308.54 398.35 317.81 408.23 324.87C415.93 330.37 432.09 327.12 436.44 318.41C441.35 308.6 426.67 306.19 420.41 307.39ZM300.77 310.59C291.9 312.3 282.19 316.72 282.19 327.17C282.19 330.37 282.8 333.37 284.72 336.06C293.79 348.75 315.67 353.85 328.75 344.51C337.46 338.29 336.6 326.94 329.89 319.65C323.46 312.66 309.94 308.82 300.77 310.59ZM378.4 331.14C371.79 332.41 365.96 333.35 360.96 338.36C357.57 341.74 357.61 347.94 361.66 350.9C370.55 357.39 394.43 357.23 397.17 343.52C398.86 335.08 384.66 329.93 378.4 331.14Z" fill="#ffffff" fill-rule="evenodd" stroke="#ffffff" stroke-width="0.25" stroke-linejoin="round"/>
</svg>